<mxfile host="app.diagrams.net" agent="Mozilla/5.0 (Windows NT 10.0; Win64; x64) AppleWebKit/537.36 (KHTML, like Gecko) Chrome/135.0.0.0 Safari/537.36" version="26.2.13">
  <diagram name="第 1 页" id="LGpQkXFBZSje_pIKsd2-">
    <mxGraphModel dx="1428" dy="966" grid="1" gridSize="10" guides="1" tooltips="1" connect="1" arrows="1" fold="1" page="1" pageScale="1" pageWidth="827" pageHeight="1169" math="0" shadow="0">
      <root>
        <mxCell id="0" />
        <mxCell id="1" parent="0" />
        <mxCell id="bRvlbwCG5lMqFlWXwj0g-3" value="" style="edgeStyle=orthogonalEdgeStyle;rounded=0;orthogonalLoop=1;jettySize=auto;html=1;" edge="1" parent="1">
          <mxGeometry relative="1" as="geometry">
            <mxPoint x="322" y="130" as="sourcePoint" />
            <mxPoint x="402" y="130" as="targetPoint" />
          </mxGeometry>
        </mxCell>
        <mxCell id="f3XSsmB6Q6Wn5nWm3caa-1" value="&lt;p&gt;设置数据治理小组&lt;/p&gt;" style="rounded=0;whiteSpace=wrap;html=1;align=center;" parent="1" vertex="1">
          <mxGeometry x="202" y="100" width="120" height="60" as="geometry" />
        </mxCell>
        <mxCell id="bRvlbwCG5lMqFlWXwj0g-5" value="" style="edgeStyle=orthogonalEdgeStyle;rounded=0;orthogonalLoop=1;jettySize=auto;html=1;" edge="1" parent="1" source="bRvlbwCG5lMqFlWXwj0g-2" target="bRvlbwCG5lMqFlWXwj0g-4">
          <mxGeometry relative="1" as="geometry" />
        </mxCell>
        <mxCell id="bRvlbwCG5lMqFlWXwj0g-2" value="规范制定&lt;div&gt;命名、元数据更改流程制定&lt;/div&gt;" style="rounded=0;whiteSpace=wrap;html=1;" vertex="1" parent="1">
          <mxGeometry x="400" y="100" width="120" height="60" as="geometry" />
        </mxCell>
        <mxCell id="bRvlbwCG5lMqFlWXwj0g-7" value="" style="edgeStyle=orthogonalEdgeStyle;rounded=0;orthogonalLoop=1;jettySize=auto;html=1;" edge="1" parent="1" source="bRvlbwCG5lMqFlWXwj0g-4" target="bRvlbwCG5lMqFlWXwj0g-6">
          <mxGeometry relative="1" as="geometry" />
        </mxCell>
        <mxCell id="bRvlbwCG5lMqFlWXwj0g-4" value="源数据同步数据，修改字段名增加src_event_col" style="whiteSpace=wrap;html=1;rounded=0;" vertex="1" parent="1">
          <mxGeometry x="600" y="100" width="120" height="60" as="geometry" />
        </mxCell>
        <mxCell id="bRvlbwCG5lMqFlWXwj0g-9" value="" style="edgeStyle=orthogonalEdgeStyle;rounded=0;orthogonalLoop=1;jettySize=auto;html=1;" edge="1" parent="1" source="bRvlbwCG5lMqFlWXwj0g-6" target="bRvlbwCG5lMqFlWXwj0g-8">
          <mxGeometry relative="1" as="geometry" />
        </mxCell>
        <mxCell id="bRvlbwCG5lMqFlWXwj0g-6" value="创建数据字典" style="whiteSpace=wrap;html=1;rounded=0;" vertex="1" parent="1">
          <mxGeometry x="800" y="100" width="120" height="60" as="geometry" />
        </mxCell>
        <mxCell id="bRvlbwCG5lMqFlWXwj0g-8" value="" style="whiteSpace=wrap;html=1;rounded=0;" vertex="1" parent="1">
          <mxGeometry x="800" y="240" width="120" height="60" as="geometry" />
        </mxCell>
        <mxCell id="bRvlbwCG5lMqFlWXwj0g-12" value="" style="edgeStyle=orthogonalEdgeStyle;rounded=0;orthogonalLoop=1;jettySize=auto;html=1;" edge="1" parent="1" source="bRvlbwCG5lMqFlWXwj0g-10" target="bRvlbwCG5lMqFlWXwj0g-11">
          <mxGeometry relative="1" as="geometry" />
        </mxCell>
        <mxCell id="bRvlbwCG5lMqFlWXwj0g-10" value="业务流程梳理" style="rounded=0;whiteSpace=wrap;html=1;" vertex="1" parent="1">
          <mxGeometry x="400" y="240" width="120" height="60" as="geometry" />
        </mxCell>
        <mxCell id="bRvlbwCG5lMqFlWXwj0g-11" value="划分数据域" style="whiteSpace=wrap;html=1;rounded=0;" vertex="1" parent="1">
          <mxGeometry x="600" y="240" width="120" height="60" as="geometry" />
        </mxCell>
        <mxCell id="bRvlbwCG5lMqFlWXwj0g-19" value="" style="edgeStyle=orthogonalEdgeStyle;rounded=0;orthogonalLoop=1;jettySize=auto;html=1;" edge="1" parent="1" source="bRvlbwCG5lMqFlWXwj0g-13" target="bRvlbwCG5lMqFlWXwj0g-18">
          <mxGeometry relative="1" as="geometry" />
        </mxCell>
        <mxCell id="bRvlbwCG5lMqFlWXwj0g-13" value="业务创建新表" style="rounded=0;whiteSpace=wrap;html=1;" vertex="1" parent="1">
          <mxGeometry x="170" y="400" width="120" height="60" as="geometry" />
        </mxCell>
        <mxCell id="bRvlbwCG5lMqFlWXwj0g-16" value="1. 根据中文名到数据字典匹配&lt;div&gt;2. 解决中文名或含义相近但不完全匹配的字段&lt;/div&gt;" style="text;html=1;align=center;verticalAlign=middle;whiteSpace=wrap;rounded=0;" vertex="1" parent="1">
          <mxGeometry x="50" y="550" width="98" height="30" as="geometry" />
        </mxCell>
        <mxCell id="bRvlbwCG5lMqFlWXwj0g-21" value="" style="edgeStyle=orthogonalEdgeStyle;rounded=0;orthogonalLoop=1;jettySize=auto;html=1;" edge="1" parent="1" source="bRvlbwCG5lMqFlWXwj0g-18" target="bRvlbwCG5lMqFlWXwj0g-20">
          <mxGeometry relative="1" as="geometry" />
        </mxCell>
        <mxCell id="bRvlbwCG5lMqFlWXwj0g-25" value="是" style="edgeLabel;html=1;align=center;verticalAlign=middle;resizable=0;points=[];" vertex="1" connectable="0" parent="bRvlbwCG5lMqFlWXwj0g-21">
          <mxGeometry x="-0.3111" relative="1" as="geometry">
            <mxPoint as="offset" />
          </mxGeometry>
        </mxCell>
        <mxCell id="bRvlbwCG5lMqFlWXwj0g-23" value="" style="edgeStyle=orthogonalEdgeStyle;rounded=0;orthogonalLoop=1;jettySize=auto;html=1;" edge="1" parent="1" source="bRvlbwCG5lMqFlWXwj0g-18" target="bRvlbwCG5lMqFlWXwj0g-22">
          <mxGeometry relative="1" as="geometry" />
        </mxCell>
        <mxCell id="bRvlbwCG5lMqFlWXwj0g-26" value="否" style="edgeLabel;html=1;align=center;verticalAlign=middle;resizable=0;points=[];" vertex="1" connectable="0" parent="bRvlbwCG5lMqFlWXwj0g-23">
          <mxGeometry x="-0.2667" y="1" relative="1" as="geometry">
            <mxPoint as="offset" />
          </mxGeometry>
        </mxCell>
        <mxCell id="bRvlbwCG5lMqFlWXwj0g-18" value="字段全部匹配" style="rhombus;whiteSpace=wrap;html=1;rounded=0;" vertex="1" parent="1">
          <mxGeometry x="190" y="530" width="80" height="80" as="geometry" />
        </mxCell>
        <mxCell id="bRvlbwCG5lMqFlWXwj0g-20" value="创建表" style="whiteSpace=wrap;html=1;rounded=0;" vertex="1" parent="1">
          <mxGeometry x="170" y="700" width="120" height="60" as="geometry" />
        </mxCell>
        <mxCell id="bRvlbwCG5lMqFlWXwj0g-24" style="edgeStyle=orthogonalEdgeStyle;rounded=0;orthogonalLoop=1;jettySize=auto;html=1;entryX=1;entryY=0.5;entryDx=0;entryDy=0;" edge="1" parent="1" source="bRvlbwCG5lMqFlWXwj0g-22" target="bRvlbwCG5lMqFlWXwj0g-20">
          <mxGeometry relative="1" as="geometry">
            <Array as="points">
              <mxPoint x="390" y="730" />
            </Array>
          </mxGeometry>
        </mxCell>
        <mxCell id="bRvlbwCG5lMqFlWXwj0g-22" value="数据字典增加新字段" style="whiteSpace=wrap;html=1;rounded=0;" vertex="1" parent="1">
          <mxGeometry x="330" y="540" width="120" height="60" as="geometry" />
        </mxCell>
      </root>
    </mxGraphModel>
  </diagram>
</mxfile>
